<svg width="157" height="53" viewBox="0 0 157 53" fill="none" xmlns="http://www.w3.org/2000/svg">
<rect x="0.398438" width="156" height="52.2" rx="7.2" fill="#2D2D2D"/>
<path d="M34.8423 27.0157C34.8568 25.9118 35.1572 24.8294 35.7153 23.8693C36.2735 22.9092 37.0713 22.1025 38.0346 21.5243C37.4227 20.6711 36.6154 19.9689 35.6768 19.4735C34.7383 18.9782 33.6943 18.7033 32.6279 18.6707C30.3531 18.4376 28.1478 19.9996 26.9886 19.9996C25.807 19.9996 24.0222 18.6938 22.1003 18.7324C20.8571 18.7717 19.6456 19.1246 18.5837 19.7568C17.5218 20.3891 16.6458 21.2791 16.041 22.3402C13.4211 26.7687 15.3753 33.277 17.8849 36.8567C19.1406 38.6096 20.608 40.5675 22.5282 40.4981C24.4072 40.422 25.109 39.3283 27.3771 39.3283C29.6242 39.3283 30.2826 40.4981 32.2417 40.454C34.258 40.422 35.5283 38.6933 36.7399 36.9239C37.6421 35.6749 38.3363 34.2945 38.7969 32.8339C37.6255 32.3502 36.6258 31.5405 35.9226 30.5059C35.2194 29.4712 34.8436 28.2574 34.8423 27.0157Z" fill="white"/>
<path d="M31.1402 16.3165C32.2395 15.0281 32.7811 13.372 32.65 11.7C30.9704 11.8722 29.419 12.6559 28.3048 13.8949C27.76 14.5002 27.3428 15.2043 27.0769 15.9672C26.8111 16.73 26.7018 17.5365 26.7554 18.3405C27.5955 18.349 28.4266 18.1712 29.1861 17.8206C29.9456 17.47 30.6137 16.9557 31.1402 16.3165Z" fill="#2D2D2D"/>
<path d="M49.3688 9.79033H51.9791C54.2361 9.79033 55.5703 11.1983 55.5703 13.5925C55.5703 15.9919 54.2414 17.3999 51.9791 17.3999H49.3688V9.79033ZM50.318 10.6446V16.5456H51.9158C53.6139 16.5456 54.6 15.4593 54.6 13.603C54.6 11.7415 53.6033 10.6446 51.9158 10.6446H50.318ZM59.4357 17.5001C57.8168 17.5001 56.8148 16.3821 56.8148 14.5575C56.8148 12.7276 57.8168 11.6149 59.4357 11.6149C61.0547 11.6149 62.0566 12.7276 62.0566 14.5575C62.0566 16.3821 61.0547 17.5001 59.4357 17.5001ZM59.4357 16.6827C60.5115 16.6827 61.118 15.9022 61.118 14.5575C61.118 13.2075 60.5115 12.4323 59.4357 12.4323C58.36 12.4323 57.7535 13.2075 57.7535 14.5575C57.7535 15.9022 58.36 16.6827 59.4357 16.6827ZM70.4203 11.7151L68.8277 17.3999H67.9049L66.634 13.0019H66.5496L65.284 17.3999H64.3664L62.7738 11.7151H63.6914L64.8094 16.2608H64.8938L66.1646 11.7151H67.0348L68.3057 16.2608H68.39L69.508 11.7151H70.4203ZM71.6332 17.3999V11.7151H72.498V12.6116H72.5824C72.8672 11.9841 73.4209 11.6149 74.291 11.6149C75.5672 11.6149 76.2791 12.369 76.2791 13.719V17.3999H75.3721V13.9405C75.3721 12.9175 74.9397 12.4323 74.0326 12.4323C73.1256 12.4323 72.5402 13.0388 72.5402 14.0354V17.3999H71.6332ZM77.993 17.3999V9.45811H78.9V17.3999H77.993ZM82.9975 17.5001C81.3785 17.5001 80.3766 16.3821 80.3766 14.5575C80.3766 12.7276 81.3785 11.6149 82.9975 11.6149C84.6164 11.6149 85.6184 12.7276 85.6184 14.5575C85.6184 16.3821 84.6164 17.5001 82.9975 17.5001ZM82.9975 16.6827C84.0732 16.6827 84.6797 15.9022 84.6797 14.5575C84.6797 13.2075 84.0732 12.4323 82.9975 12.4323C81.9217 12.4323 81.3152 13.2075 81.3152 14.5575C81.3152 15.9022 81.9217 16.6827 82.9975 16.6827ZM88.793 16.7038C89.7264 16.7038 90.4172 16.0921 90.4172 15.28V14.7579L88.8879 14.8581C88.023 14.9161 87.6434 15.2167 87.6434 15.7862C87.6434 16.3663 88.1338 16.7038 88.793 16.7038ZM88.6242 17.5001C87.5221 17.5001 86.7047 16.8462 86.7047 15.8073C86.7047 14.7896 87.4535 14.2042 88.7772 14.1251L90.4172 14.0249V13.5081C90.4172 12.8067 89.9795 12.4218 89.1305 12.4218C88.4502 12.4218 87.9756 12.6802 87.849 13.1284H86.9314C87.0527 12.2161 87.9492 11.6149 89.1621 11.6149C90.549 11.6149 91.3242 12.3269 91.3242 13.5081V17.3999H90.4594V16.5614H90.375C90.0059 17.1679 89.3836 17.5001 88.6242 17.5001ZM95.1053 17.5001C93.6498 17.5001 92.7164 16.3452 92.7164 14.5575C92.7164 12.7751 93.6604 11.6149 95.1053 11.6149C95.8963 11.6149 96.566 11.9894 96.8877 12.6116H96.9668V9.45811H97.8738V17.3999H97.009V16.4929H96.9246C96.566 17.1257 95.891 17.5001 95.1053 17.5001ZM95.3162 12.4323C94.2826 12.4323 93.6551 13.2339 93.6551 14.5575C93.6551 15.8864 94.2773 16.6827 95.3162 16.6827C96.3498 16.6827 96.9879 15.8706 96.9879 14.5575C96.9879 13.255 96.3445 12.4323 95.3162 12.4323ZM105.019 17.5001C103.4 17.5001 102.398 16.3821 102.398 14.5575C102.398 12.7276 103.4 11.6149 105.019 11.6149C106.638 11.6149 107.64 12.7276 107.64 14.5575C107.64 16.3821 106.638 17.5001 105.019 17.5001ZM105.019 16.6827C106.095 16.6827 106.702 15.9022 106.702 14.5575C106.702 13.2075 106.095 12.4323 105.019 12.4323C103.944 12.4323 103.337 13.2075 103.337 14.5575C103.337 15.9022 103.944 16.6827 105.019 16.6827ZM109.064 17.3999V11.7151H109.929V12.6116H110.013C110.298 11.9841 110.852 11.6149 111.722 11.6149C112.998 11.6149 113.71 12.369 113.71 13.719V17.3999H112.803V13.9405C112.803 12.9175 112.371 12.4323 111.463 12.4323C110.556 12.4323 109.971 13.0388 109.971 14.0354V17.3999H109.064ZM118.799 10.2438H119.706V11.7151H120.971V12.4745H119.706V15.6913C119.706 16.361 119.959 16.6458 120.55 16.6458C120.713 16.6458 120.803 16.6405 120.971 16.6247V17.3894C120.792 17.421 120.618 17.4421 120.439 17.4421C119.268 17.4421 118.799 17.0097 118.799 15.9233V12.4745H117.881V11.7151H118.799V10.2438ZM122.395 17.3999V9.45811H123.302V12.6116H123.387C123.671 11.9841 124.267 11.6149 125.138 11.6149C126.34 11.6149 127.099 12.3849 127.099 13.719V17.3999H126.192V13.9405C126.192 12.9333 125.739 12.4323 124.879 12.4323C123.861 12.4323 123.302 13.0757 123.302 14.0354V17.3999H122.395ZM131.023 12.4165C130.116 12.4165 129.483 13.081 129.414 14.0882H132.547C132.526 13.081 131.924 12.4165 131.023 12.4165ZM132.52 15.9286H133.427C133.153 16.9042 132.278 17.5001 131.033 17.5001C129.456 17.5001 128.47 16.361 128.47 14.5628C128.47 12.7751 129.472 11.6149 131.033 11.6149C132.568 11.6149 133.501 12.7065 133.501 14.4731V14.8212H129.414V14.8634C129.462 15.9866 130.089 16.6985 131.054 16.6985C131.787 16.6985 132.283 16.4296 132.52 15.9286Z" fill="white"/>
<path d="M59.7152 40.7998L58.323 36.6865H52.5223L51.1301 40.7998H48.6727L54.1676 25.5807H56.7199L62.2148 40.7998H59.7152ZM55.391 28.1119L53.1234 34.7881H57.7219L55.4543 28.1119H55.391ZM68.8333 29.5252C71.6493 29.5252 73.5055 31.74 73.5055 35.2521C73.5055 38.7643 71.6598 40.9896 68.8755 40.9896C67.2829 40.9896 66.0172 40.2092 65.3844 38.9752H65.3317V44.4701H63.0536V29.7045H65.2579V31.6135H65.3001C65.954 30.3373 67.2301 29.5252 68.8333 29.5252ZM68.2321 39.0596C70.0356 39.0596 71.1641 37.583 71.1641 35.2521C71.1641 32.9318 70.0356 31.4447 68.2321 31.4447C66.4919 31.4447 65.3212 32.9635 65.3212 35.2521C65.3212 37.5619 66.4813 39.0596 68.2321 39.0596ZM80.4825 29.5252C83.2986 29.5252 85.1548 31.74 85.1548 35.2521C85.1548 38.7643 83.3091 40.9896 80.5247 40.9896C78.9322 40.9896 77.6665 40.2092 77.0337 38.9752H76.981V44.4701H74.7029V29.7045H76.9072V31.6135H76.9493C77.6033 30.3373 78.8794 29.5252 80.4825 29.5252ZM79.8814 39.0596C81.6849 39.0596 82.8134 37.583 82.8134 35.2521C82.8134 32.9318 81.6849 31.4447 79.8814 31.4447C78.1411 31.4447 76.9704 32.9635 76.9704 35.2521C76.9704 37.5619 78.1306 39.0596 79.8814 39.0596ZM89.7749 36.56H92.1057C92.2745 38.0682 93.7405 39.0596 95.7444 39.0596C97.6639 39.0596 99.0456 38.0682 99.0456 36.7076C99.0456 35.5264 98.2124 34.8197 96.2401 34.3346L94.2678 33.86C91.4729 33.185 90.1756 31.8771 90.1756 29.7572C90.1756 27.1311 92.4643 25.3275 95.7128 25.3275C98.9295 25.3275 101.134 27.1311 101.208 29.7572H98.9085C98.7713 28.2385 97.5163 27.3209 95.6811 27.3209C93.846 27.3209 92.5909 28.249 92.5909 29.599C92.5909 30.6748 93.3924 31.3076 95.3542 31.7928L97.0311 32.2041C100.153 32.9424 101.45 34.1975 101.45 36.4229C101.45 39.2705 99.1827 41.0529 95.5756 41.0529C92.2006 41.0529 89.9225 39.3127 89.7749 36.56ZM103.396 27.0783H105.685V29.7045H107.794V31.508H105.685V37.6252C105.685 38.585 106.107 39.0174 107.035 39.0174C107.267 39.0174 107.636 38.9963 107.784 38.9646V40.7682C107.531 40.8314 107.025 40.8736 106.518 40.8736C104.272 40.8736 103.396 40.0193 103.396 37.8783V31.508H101.783V29.7045H103.396V27.0783ZM113.601 41.0107C110.426 41.0107 108.338 38.8275 108.338 35.2521C108.338 31.6873 110.437 29.5041 113.601 29.5041C116.765 29.5041 118.864 31.6873 118.864 35.2521C118.864 38.8275 116.775 41.0107 113.601 41.0107ZM113.601 39.1334C115.394 39.1334 116.543 37.7201 116.543 35.2521C116.543 32.7947 115.383 31.3814 113.601 31.3814C111.818 31.3814 110.658 32.7947 110.658 35.2521C110.658 37.7201 111.818 39.1334 113.601 39.1334ZM120.061 40.7998V29.7045H122.234V31.5924H122.286C122.656 30.2951 123.647 29.5252 124.955 29.5252C125.282 29.5252 125.566 29.5779 125.735 29.6096V31.7295C125.556 31.6557 125.155 31.6029 124.712 31.6029C123.246 31.6029 122.339 32.5838 122.339 34.1553V40.7998H120.061ZM130.74 31.3393C129.147 31.3393 128.029 32.5521 127.913 34.2291H133.461C133.408 32.5311 132.333 31.3393 130.74 31.3393ZM133.451 37.5408H135.613C135.296 39.5658 133.377 41.0107 130.835 41.0107C127.576 41.0107 125.604 38.8064 125.604 35.3049C125.604 31.8244 127.608 29.5041 130.74 29.5041C133.82 29.5041 135.739 31.6768 135.739 35.0412V35.8217H127.903V35.9588C127.903 37.8889 129.063 39.165 130.888 39.165C132.185 39.165 133.145 38.5111 133.451 37.5408Z" fill="white"/>
</svg>
