<svg width="153" height="52" viewBox="0 0 153 52" fill="none" xmlns="http://www.w3.org/2000/svg">
<rect y="0.300049" width="152.4" height="51.6" rx="7.2" fill="#2D2D2D"/>
<path d="M26.1661 25.454L14.5078 38.1071C14.5089 38.1093 14.5089 38.1127 14.51 38.1149C14.8681 39.4889 16.0944 40.5 17.5508 40.5C18.1333 40.5 18.6797 40.3388 19.1483 40.0566L19.1856 40.0342L32.3078 32.2912L26.1661 25.454Z" fill="#EA4335"/>
<path d="M37.9575 23.2994L37.9465 23.2915L32.2811 19.9334L25.8984 25.7415L32.3041 32.2898L37.9388 28.9653C38.9265 28.4188 39.5977 27.354 39.5977 26.1267C39.5977 24.9062 38.9364 23.8469 37.9575 23.2994Z" fill="#FBBC04"/>
<path d="M14.5057 14.092C14.4357 14.3563 14.3984 14.634 14.3984 14.9207V37.2797C14.3984 37.5663 14.4357 37.844 14.5068 38.1072L26.5648 25.7777L14.5057 14.092Z" fill="#4285F4"/>
<path d="M26.2487 26.0999L32.282 19.9312L19.1751 12.1602C18.6988 11.8679 18.1425 11.7 17.548 11.7C16.0916 11.7 14.8631 12.7133 14.505 14.0884C14.505 14.0895 14.5039 14.0906 14.5039 14.0917L26.2487 26.0999Z" fill="#34A853"/>
<path d="M55.7383 16.1844C55.7383 17.8532 54.5945 18.9594 52.8648 18.9594C50.9945 18.9594 49.7992 17.5813 49.7992 15.4157C49.7992 13.2782 51.0133 11.8766 52.8648 11.8766C54.3648 11.8766 55.4523 12.711 55.6961 14.0516H54.8383C54.5477 13.1375 53.868 12.6547 52.8648 12.6547C51.5242 12.6547 50.6664 13.7329 50.6664 15.4157C50.6664 17.1219 51.5102 18.1813 52.8695 18.1813C54.0789 18.1813 54.8992 17.4079 54.8992 16.2641V16.1H52.9961V15.3594H55.7383V16.1844ZM61.4242 18.0407V18.8H57.2336V12.036H61.4242V12.7954H58.0773V14.9657H61.2508V15.7157H58.0773V18.0407H61.4242ZM65.5539 18.8H64.7102V12.7954H62.5305V12.036H67.7336V12.7954H65.5539V18.8ZM72.5898 18.8H71.7461V12.036H72.5898V18.8ZM76.9164 18.8H76.0727V12.7954H73.893V12.036H79.0961V12.7954H76.9164V18.8ZM85.9539 11.8766C87.8758 11.8766 89.0477 13.2454 89.0477 15.4157C89.0477 17.5766 87.8852 18.9594 85.9539 18.9594C84.0133 18.9594 82.8461 17.5813 82.8461 15.4157C82.8461 13.2407 84.0414 11.8766 85.9539 11.8766ZM85.9539 12.6547C84.5758 12.6547 83.7133 13.7235 83.7133 15.4157C83.7133 17.0938 84.5477 18.1813 85.9539 18.1813C87.3414 18.1813 88.1805 17.0938 88.1805 15.4157C88.1805 13.7235 87.3367 12.6547 85.9539 12.6547ZM91.3492 18.8H90.5148V12.036H91.3352L95.0055 17.3H95.0805V12.036H95.9148V18.8H95.0945L91.4242 13.5547H91.3492V18.8Z" fill="white"/>
<path d="M118.221 38.0917H120.176V24.8779H118.221V38.0917ZM135.826 29.6377L133.585 35.3667H133.518L131.193 29.6377H129.087L132.574 37.6446L130.587 42.0989H132.625L137.999 29.6377H135.826ZM124.741 36.5908C124.1 36.5908 123.208 36.2684 123.208 35.4682C123.208 34.4492 124.319 34.0581 125.28 34.0581C126.139 34.0581 126.544 34.2452 127.066 34.5C126.914 35.724 125.87 36.5908 124.741 36.5908ZM124.977 29.3491C123.562 29.3491 122.096 29.978 121.49 31.3723L123.225 32.1027C123.596 31.3723 124.286 31.1334 125.011 31.1334C126.021 31.1334 127.049 31.7454 127.066 32.8341V32.9694C126.712 32.7654 125.954 32.4599 125.027 32.4599C123.158 32.4599 121.253 33.4969 121.253 35.4344C121.253 37.2028 122.787 38.3422 124.505 38.3422C125.819 38.3422 126.544 37.7471 126.999 37.0495H127.066V38.0695H128.952V33.0032C128.952 30.6577 127.218 29.3491 124.977 29.3491ZM112.898 31.2465H110.118V26.7171H112.898C114.359 26.7171 115.189 27.938 115.189 28.9813C115.189 30.0055 114.359 31.2465 112.898 31.2465ZM112.847 24.8779H108.164V38.0917H110.118V33.0857H112.847C115.014 33.0857 117.143 31.5023 117.143 28.9813C117.143 26.4603 115.014 24.8779 112.847 24.8779ZM87.3092 36.5929C85.959 36.5929 84.8288 35.4524 84.8288 33.8858C84.8288 32.3024 85.959 31.1439 87.3092 31.1439C88.6426 31.1439 89.688 32.3024 89.688 33.8858C89.688 35.4524 88.6426 36.5929 87.3092 36.5929ZM89.5539 30.3776H89.4858C89.0469 29.8501 88.2037 29.3734 87.1405 29.3734C84.9126 29.3734 82.8711 31.3479 82.8711 33.8858C82.8711 36.4058 84.9126 38.3644 87.1405 38.3644C88.2037 38.3644 89.0469 37.8877 89.4858 37.3423H89.5539V37.9903C89.5539 39.71 88.6426 40.6296 87.1741 40.6296C85.9758 40.6296 85.2331 39.7608 84.9293 39.0283L83.2251 39.7439C83.7143 40.9362 85.0142 42.4001 87.1741 42.4001C89.4691 42.4001 91.41 41.0376 91.41 37.7175V29.6451H89.5539V30.3776ZM92.7602 38.0917H94.7179V24.8769H92.7602V38.0917ZM97.6026 33.7326C97.5524 31.9959 98.9361 31.1101 99.9312 31.1101C100.708 31.1101 101.366 31.5012 101.585 32.0635L97.6026 33.7326ZM103.678 32.2337C103.307 31.2296 102.176 29.3734 99.8641 29.3734C97.5691 29.3734 95.6627 31.1947 95.6627 33.8689C95.6627 36.3889 97.5524 38.3644 100.083 38.3644C102.126 38.3644 103.307 37.1045 103.796 36.372L102.277 35.3498C101.772 36.0992 101.079 36.5929 100.083 36.5929C99.088 36.5929 98.3788 36.1331 97.9232 35.2314L103.88 32.7443L103.678 32.2337ZM56.2193 30.7528V32.6597H60.7413C60.6061 33.7326 60.2521 34.5158 59.7126 35.0602C59.0538 35.7251 58.0241 36.4576 56.2193 36.4576C53.4341 36.4576 51.2575 34.1924 51.2575 31.3828C51.2575 28.5722 53.4341 26.3081 56.2193 26.3081C57.7214 26.3081 58.8181 26.9042 59.6278 27.6706L60.9612 26.325C59.83 25.2352 58.3289 24.4001 56.2193 24.4001C52.4055 24.4001 49.1992 27.5342 49.1992 31.3828C49.1992 35.2314 52.4055 38.3644 56.2193 38.3644C58.2776 38.3644 59.83 37.6827 61.045 36.4058C62.2946 35.1458 62.6822 33.3753 62.6822 31.9441C62.6822 31.5012 62.6487 31.0932 62.5806 30.7528H56.2193ZM67.8242 36.5929C66.474 36.5929 65.3092 35.4693 65.3092 33.8689C65.3092 32.2506 66.474 31.1439 67.8242 31.1439C69.1734 31.1439 70.3381 32.2506 70.3381 33.8689C70.3381 35.4693 69.1734 36.5929 67.8242 36.5929ZM67.8242 29.3734C65.3595 29.3734 63.3515 31.2634 63.3515 33.8689C63.3515 36.4576 65.3595 38.3644 67.8242 38.3644C70.2879 38.3644 72.2959 36.4576 72.2959 33.8689C72.2959 31.2634 70.2879 29.3734 67.8242 29.3734ZM77.5793 36.5929C76.2291 36.5929 75.0643 35.4693 75.0643 33.8689C75.0643 32.2506 76.2291 31.1439 77.5793 31.1439C78.9295 31.1439 80.0932 32.2506 80.0932 33.8689C80.0932 35.4693 78.9295 36.5929 77.5793 36.5929ZM77.5793 29.3734C75.1156 29.3734 73.1076 31.2634 73.1076 33.8689C73.1076 36.4576 75.1156 38.3644 77.5793 38.3644C80.0429 38.3644 82.0509 36.4576 82.0509 33.8689C82.0509 31.2634 80.0429 29.3734 77.5793 29.3734Z" fill="white"/>
</svg>
