<svg width="90" height="23" viewBox="0 0 90 23" fill="none" xmlns="http://www.w3.org/2000/svg">
<rect x="1" y="0.5" width="88" height="22" rx="11" stroke="white"/>
<path d="M17.74 8.05V8.98H15.89V15H14.75V8.98H12.89V8.05H17.74ZM23.9445 12.11C23.9445 12.3167 23.9312 12.5033 23.9045 12.67H19.6945C19.7279 13.11 19.8912 13.4633 20.1845 13.73C20.4779 13.9967 20.8379 14.13 21.2645 14.13C21.8779 14.13 22.3112 13.8733 22.5645 13.36H23.7945C23.6279 13.8667 23.3245 14.2833 22.8845 14.61C22.4512 14.93 21.9112 15.09 21.2645 15.09C20.7379 15.09 20.2645 14.9733 19.8445 14.74C19.4312 14.5 19.1045 14.1667 18.8645 13.74C18.6312 13.3067 18.5145 12.8067 18.5145 12.24C18.5145 11.6733 18.6279 11.1767 18.8545 10.75C19.0879 10.3167 19.4112 9.98333 19.8245 9.75C20.2445 9.51667 20.7245 9.4 21.2645 9.4C21.7845 9.4 22.2479 9.51333 22.6545 9.74C23.0612 9.96667 23.3779 10.2867 23.6045 10.7C23.8312 11.1067 23.9445 11.5767 23.9445 12.11ZM22.7545 11.75C22.7479 11.33 22.5979 10.9933 22.3045 10.74C22.0112 10.4867 21.6479 10.36 21.2145 10.36C20.8212 10.36 20.4845 10.4867 20.2045 10.74C19.9245 10.9867 19.7579 11.3233 19.7045 11.75H22.7545ZM27.0664 15.09C26.6331 15.09 26.2431 15.0133 25.8964 14.86C25.5564 14.7 25.2864 14.4867 25.0864 14.22C24.8864 13.9467 24.7797 13.6433 24.7664 13.31H25.9464C25.9664 13.5433 26.0764 13.74 26.2764 13.9C26.4831 14.0533 26.7397 14.13 27.0464 14.13C27.3664 14.13 27.6131 14.07 27.7864 13.95C27.9664 13.8233 28.0564 13.6633 28.0564 13.47C28.0564 13.2633 27.9564 13.11 27.7564 13.01C27.5631 12.91 27.2531 12.8 26.8264 12.68C26.4131 12.5667 26.0764 12.4567 25.8164 12.35C25.5564 12.2433 25.3297 12.08 25.1364 11.86C24.9497 11.64 24.8564 11.35 24.8564 10.99C24.8564 10.6967 24.9431 10.43 25.1164 10.19C25.2897 9.94333 25.5364 9.75 25.8564 9.61C26.1831 9.47 26.5564 9.4 26.9764 9.4C27.6031 9.4 28.1064 9.56 28.4864 9.88C28.8731 10.1933 29.0797 10.6233 29.1064 11.17H27.9664C27.9464 10.9233 27.8464 10.7267 27.6664 10.58C27.4864 10.4333 27.2431 10.36 26.9364 10.36C26.6364 10.36 26.4064 10.4167 26.2464 10.53C26.0864 10.6433 26.0064 10.7933 26.0064 10.98C26.0064 11.1267 26.0597 11.25 26.1664 11.35C26.2731 11.45 26.4031 11.53 26.5564 11.59C26.7097 11.6433 26.9364 11.7133 27.2364 11.8C27.6364 11.9067 27.9631 12.0167 28.2164 12.13C28.4764 12.2367 28.6997 12.3967 28.8864 12.61C29.0731 12.8233 29.1697 13.1067 29.1764 13.46C29.1764 13.7733 29.0897 14.0533 28.9164 14.3C28.7431 14.5467 28.4964 14.74 28.1764 14.88C27.8631 15.02 27.4931 15.09 27.0664 15.09ZM31.7382 10.42V13.47C31.7382 13.6767 31.7849 13.8267 31.8782 13.92C31.9782 14.0067 32.1449 14.05 32.3782 14.05H33.0782V15H32.1782C31.6649 15 31.2715 14.88 30.9982 14.64C30.7249 14.4 30.5882 14.01 30.5882 13.47V10.42H29.9382V9.49H30.5882V8.12H31.7382V9.49H33.0782V10.42H31.7382ZM34.7089 8.76C34.5022 8.76 34.3289 8.69 34.1889 8.55C34.0489 8.41 33.9789 8.23667 33.9789 8.03C33.9789 7.82333 34.0489 7.65 34.1889 7.51C34.3289 7.37 34.5022 7.3 34.7089 7.3C34.9089 7.3 35.0789 7.37 35.2189 7.51C35.3589 7.65 35.4289 7.82333 35.4289 8.03C35.4289 8.23667 35.3589 8.41 35.2189 8.55C35.0789 8.69 34.9089 8.76 34.7089 8.76ZM35.2689 9.49V15H34.1289V9.49H35.2689ZM43.4356 9.4C43.869 9.4 44.2556 9.49 44.5956 9.67C44.9423 9.85 45.2123 10.1167 45.4056 10.47C45.6056 10.8233 45.7056 11.25 45.7056 11.75V15H44.5756V11.92C44.5756 11.4267 44.4523 11.05 44.2056 10.79C43.959 10.5233 43.6223 10.39 43.1956 10.39C42.769 10.39 42.429 10.5233 42.1756 10.79C41.929 11.05 41.8056 11.4267 41.8056 11.92V15H40.6756V11.92C40.6756 11.4267 40.5523 11.05 40.3056 10.79C40.059 10.5233 39.7223 10.39 39.2956 10.39C38.869 10.39 38.529 10.5233 38.2756 10.79C38.029 11.05 37.9056 11.4267 37.9056 11.92V15H36.7656V9.49H37.9056V10.12C38.0923 9.89333 38.329 9.71667 38.6156 9.59C38.9023 9.46333 39.209 9.4 39.5356 9.4C39.9756 9.4 40.369 9.49333 40.7156 9.68C41.0623 9.86667 41.329 10.1367 41.5156 10.49C41.6823 10.1567 41.9423 9.89333 42.2956 9.7C42.649 9.5 43.029 9.4 43.4356 9.4ZM49.5463 15.09C49.0263 15.09 48.5563 14.9733 48.1363 14.74C47.7163 14.5 47.3863 14.1667 47.1463 13.74C46.9063 13.3067 46.7863 12.8067 46.7863 12.24C46.7863 11.68 46.9096 11.1833 47.1563 10.75C47.4029 10.3167 47.7396 9.98333 48.1663 9.75C48.5929 9.51667 49.0696 9.4 49.5963 9.4C50.1229 9.4 50.5996 9.51667 51.0263 9.75C51.4529 9.98333 51.7896 10.3167 52.0363 10.75C52.2829 11.1833 52.4063 11.68 52.4063 12.24C52.4063 12.8 52.2796 13.2967 52.0263 13.73C51.7729 14.1633 51.4263 14.5 50.9863 14.74C50.5529 14.9733 50.0729 15.09 49.5463 15.09ZM49.5463 14.1C49.8396 14.1 50.1129 14.03 50.3663 13.89C50.6263 13.75 50.8363 13.54 50.9963 13.26C51.1563 12.98 51.2363 12.64 51.2363 12.24C51.2363 11.84 51.1596 11.5033 51.0063 11.23C50.8529 10.95 50.6496 10.74 50.3963 10.6C50.1429 10.46 49.8696 10.39 49.5763 10.39C49.2829 10.39 49.0096 10.46 48.7563 10.6C48.5096 10.74 48.3129 10.95 48.1663 11.23C48.0196 11.5033 47.9463 11.84 47.9463 12.24C47.9463 12.8333 48.0963 13.2933 48.3963 13.62C48.7029 13.94 49.0863 14.1 49.5463 14.1ZM56.3132 9.4C56.7465 9.4 57.1332 9.49 57.4732 9.67C57.8199 9.85 58.0899 10.1167 58.2832 10.47C58.4765 10.8233 58.5732 11.25 58.5732 11.75V15H57.4432V11.92C57.4432 11.4267 57.3199 11.05 57.0732 10.79C56.8265 10.5233 56.4899 10.39 56.0632 10.39C55.6365 10.39 55.2965 10.5233 55.0432 10.79C54.7965 11.05 54.6732 11.4267 54.6732 11.92V15H53.5332V9.49H54.6732V10.12C54.8599 9.89333 55.0965 9.71667 55.3832 9.59C55.6765 9.46333 55.9865 9.4 56.3132 9.4ZM60.6073 8.76C60.4007 8.76 60.2273 8.69 60.0873 8.55C59.9473 8.41 59.8773 8.23667 59.8773 8.03C59.8773 7.82333 59.9473 7.65 60.0873 7.51C60.2273 7.37 60.4007 7.3 60.6073 7.3C60.8073 7.3 60.9773 7.37 61.1173 7.51C61.2573 7.65 61.3273 7.82333 61.3273 8.03C61.3273 8.23667 61.2573 8.41 61.1173 8.55C60.9773 8.69 60.8073 8.76 60.6073 8.76ZM61.1673 9.49V15H60.0273V9.49H61.1673ZM62.2841 12.22C62.2841 11.6667 62.3974 11.1767 62.6241 10.75C62.8574 10.3233 63.1707 9.99333 63.5641 9.76C63.9641 9.52 64.4041 9.4 64.8841 9.4C65.3174 9.4 65.6941 9.48667 66.0141 9.66C66.3407 9.82667 66.6007 10.0367 66.7941 10.29V9.49H67.9441V15H66.7941V14.18C66.6007 14.44 66.3374 14.6567 66.0041 14.83C65.6707 15.0033 65.2907 15.09 64.8641 15.09C64.3907 15.09 63.9574 14.97 63.5641 14.73C63.1707 14.4833 62.8574 14.1433 62.6241 13.71C62.3974 13.27 62.2841 12.7733 62.2841 12.22ZM66.7941 12.24C66.7941 11.86 66.7141 11.53 66.5541 11.25C66.4007 10.97 66.1974 10.7567 65.9441 10.61C65.6907 10.4633 65.4174 10.39 65.1241 10.39C64.8307 10.39 64.5574 10.4633 64.3041 10.61C64.0507 10.75 63.8441 10.96 63.6841 11.24C63.5307 11.5133 63.4541 11.84 63.4541 12.22C63.4541 12.6 63.5307 12.9333 63.6841 13.22C63.8441 13.5067 64.0507 13.7267 64.3041 13.88C64.5641 14.0267 64.8374 14.1 65.1241 14.1C65.4174 14.1 65.6907 14.0267 65.9441 13.88C66.1974 13.7333 66.4007 13.52 66.5541 13.24C66.7141 12.9533 66.7941 12.62 66.7941 12.24ZM70.5814 7.6V15H69.4414V7.6H70.5814ZM74.0781 15.09C73.6448 15.09 73.2548 15.0133 72.9081 14.86C72.5681 14.7 72.2981 14.4867 72.0981 14.22C71.8981 13.9467 71.7915 13.6433 71.7781 13.31H72.9581C72.9781 13.5433 73.0881 13.74 73.2881 13.9C73.4948 14.0533 73.7515 14.13 74.0581 14.13C74.3781 14.13 74.6248 14.07 74.7981 13.95C74.9781 13.8233 75.0681 13.6633 75.0681 13.47C75.0681 13.2633 74.9681 13.11 74.7681 13.01C74.5748 12.91 74.2648 12.8 73.8381 12.68C73.4248 12.5667 73.0881 12.4567 72.8281 12.35C72.5681 12.2433 72.3415 12.08 72.1481 11.86C71.9615 11.64 71.8681 11.35 71.8681 10.99C71.8681 10.6967 71.9548 10.43 72.1281 10.19C72.3015 9.94333 72.5481 9.75 72.8681 9.61C73.1948 9.47 73.5681 9.4 73.9881 9.4C74.6148 9.4 75.1181 9.56 75.4981 9.88C75.8848 10.1933 76.0915 10.6233 76.1181 11.17H74.9781C74.9581 10.9233 74.8581 10.7267 74.6781 10.58C74.4981 10.4333 74.2548 10.36 73.9481 10.36C73.6481 10.36 73.4181 10.4167 73.2581 10.53C73.0981 10.6433 73.0181 10.7933 73.0181 10.98C73.0181 11.1267 73.0715 11.25 73.1781 11.35C73.2848 11.45 73.4148 11.53 73.5681 11.59C73.7215 11.6433 73.9481 11.7133 74.2481 11.8C74.6481 11.9067 74.9748 12.0167 75.2281 12.13C75.4881 12.2367 75.7115 12.3967 75.8981 12.61C76.0848 12.8233 76.1815 13.1067 76.1881 13.46C76.1881 13.7733 76.1015 14.0533 75.9281 14.3C75.7548 14.5467 75.5081 14.74 75.1881 14.88C74.8748 15.02 74.5048 15.09 74.0781 15.09Z" fill="white"/>
</svg>
